<?xml version="1.0" encoding="UTF-8"?>
<svg width="512" height="512" viewBox="0 0 512 512" version="1.1" xmlns="http://www.w3.org/2000/svg" xmlns:xlink="http://www.w3.org/1999/xlink" style="fill-rule:evenodd;clip-rule:evenodd;stroke-linejoin:round;stroke-miterlimit:2;">
  <rect width="512" height="512" rx="112" ry="112" fill="#070A0F"/>
  <g transform="translate(-57.1,-44.9) scale(0.03656)" style="fill:#fff;fill-rule:nonzero;">
    <path d="M8564.265,8093.75c-0.129,0 -0.25,-0.008 -0.375,-0.008c-0.129,0 -0.25,0.008 -0.375,0.008c-490.754,-0.208 -888.517,-398.071 -888.517,-888.888c0,-490.929 397.95,-888.888 888.887,-888.888c490.938,0 888.888,397.95 888.888,888.888c0,490.817 -397.763,888.679 -888.517,888.888m4397.146,2912.363l-3.821,-7.733l-1007.908,-2015.738l-2984,-5968.004c-1.337,-2.846 -2.75,-5.688 -4.271,-8.533c-2.221,-4.533 -4.529,-8.975 -6.938,-13.333c-0.088,-0.087 -0.088,-0.175 -0.175,-0.271c-2.396,-4.446 -4.887,-8.804 -7.467,-13.158c-2.308,-3.917 -4.712,-7.821 -7.108,-11.642c-0.625,-0.979 -1.25,-2.05 -1.962,-3.021c-1.867,-3.021 -3.917,-6.042 -5.954,-8.975c-0.625,-1.067 -1.337,-2.133 -2.05,-3.108c-0.175,-0.175 -0.271,-0.442 -0.442,-0.625c-2.492,-3.646 -5.071,-7.108 -7.55,-10.583c-2.933,-4.088 -6.05,-8.175 -9.246,-12.092c-2.75,-3.463 -5.6,-7.021 -8.446,-10.4c-0.712,-0.8 -1.425,-1.596 -2.125,-2.396c-2.846,-3.463 -5.867,-6.842 -8.983,-10.225c-3.375,-3.733 -6.842,-7.467 -10.312,-11.025c-3.462,-3.558 -6.938,-7.021 -10.487,-10.488c-0.183,-0.175 -0.354,-0.354 -0.625,-0.529c-3.462,-3.375 -7.021,-6.754 -10.667,-9.958c-3.375,-3.108 -6.842,-6.042 -10.312,-8.975c-0.888,-0.8 -1.779,-1.596 -2.75,-2.308c-3.292,-2.846 -6.667,-5.513 -10.129,-8.175c-1.954,-1.508 -4,-3.108 -5.954,-4.625c-2.05,-1.513 -4.088,-3.108 -6.138,-4.529c-3.638,-2.667 -7.292,-5.242 -11.025,-7.733c-3.733,-2.667 -7.55,-5.154 -11.467,-7.646c-3.292,-2.133 -6.667,-4.271 -10.129,-6.312c-0.625,-0.442 -1.337,-0.883 -2.125,-1.338c-2.667,-1.508 -5.329,-3.108 -8.092,-4.625c-0.175,-0.088 -0.258,-0.175 -0.442,-0.271c-2.579,-1.513 -5.329,-3.021 -8.092,-4.446c-4.263,-2.404 -8.621,-4.625 -12.979,-6.754c-0.529,-0.271 -0.971,-0.529 -1.508,-0.713c-3.829,-1.954 -7.733,-3.821 -11.737,-5.6c-4,-1.867 -8.092,-3.646 -12.179,-5.329c-2.933,-1.242 -5.954,-2.492 -8.983,-3.558c-2.221,-0.979 -4.533,-1.867 -6.842,-2.667c-4.704,-1.779 -9.417,-3.463 -14.221,-5.071c-4.088,-1.425 -8.175,-2.75 -12.275,-4c-0.8,-0.271 -1.596,-0.442 -2.396,-0.713c-3.821,-1.154 -7.646,-2.221 -11.554,-3.204c-1.337,-0.354 -2.579,-0.8 -3.917,-1.067c-2.138,-0.625 -4.358,-1.154 -6.579,-1.596c-0.087,-0.088 -0.175,-0.088 -0.271,-0.088c-0.088,0 -0.175,-0.087 -0.271,-0.087c-2.221,-0.625 -4.529,-1.154 -6.842,-1.596c-0.979,-0.271 -1.867,-0.442 -2.75,-0.625c-5.071,-1.067 -10.129,-2.138 -15.2,-3.021c-5.158,-0.979 -10.312,-1.779 -15.471,-2.579c-10.312,-1.513 -20.8,-2.579 -31.371,-3.375c-4.358,-0.354 -8.629,-0.625 -12.979,-0.8l-1.154,0c-1.683,-0.088 -3.375,-0.175 -5.071,-0.175c-4.529,-0.175 -9.158,-0.271 -13.775,-0.271c-174.046,0 -324.712,100 -397.508,245.688l-4.625,9.333l-2983.646,5967.204l-1007.021,2014.133l-4.704,9.333l0.087,0c-29.958,59.913 -47.021,127.292 -47.021,198.758c0,245.417 198.933,444.446 444.446,444.446l2666.667,0c245.425,0 444.446,-199.029 444.446,-444.446l0,-1777.779c0,-245.513 198.933,-444.446 444.446,-444.446l888.887,0c245.425,0 444.446,198.933 444.446,444.446l0,1777.779c0,245.417 198.933,444.446 444.446,444.446l2666.667,0c245.425,0 444.446,-199.029 444.446,-444.446c0,-71.467 -16.971,-138.933 -46.937,-198.758" style="fill:#fff;fill-rule:nonzero;"/>
  </g>
</svg>
