<?xml version="1.0" encoding="UTF-8" standalone="no"?><!DOCTYPE svg PUBLIC "-//W3C//DTD SVG 1.1//EN" "http://www.w3.org/Graphics/SVG/1.1/DTD/svg11.dtd"><svg width="100%" height="100%" viewBox="0 0 1024 1024" version="1.1" xmlns="http://www.w3.org/2000/svg" xmlns:xlink="http://www.w3.org/1999/xlink" xml:space="preserve" xmlns:serif="http://www.serif.com/" style="fill-rule:evenodd;clip-rule:evenodd;stroke-linejoin:round;stroke-miterlimit:2;"><path d="M512.043,614.4c-0.015,0 -0.029,-0.001 -0.043,-0.001c-0.015,0 -0.029,0.001 -0.043,0.001c-56.535,-0.024 -102.357,-45.858 -102.357,-102.4c0,-56.555 45.844,-102.4 102.4,-102.4c56.556,0 102.4,45.844 102.4,102.4c0,56.542 -45.822,102.376 -102.357,102.4m506.551,335.504l-0.44,-0.891l-116.111,-232.213l-343.757,-687.514c-0.154,-0.328 -0.317,-0.655 -0.492,-0.983c-0.256,-0.522 -0.522,-1.034 -0.799,-1.536c-0.01,-0.01 -0.01,-0.02 -0.02,-0.031c-0.276,-0.512 -0.563,-1.014 -0.86,-1.516c-0.266,-0.451 -0.543,-0.901 -0.819,-1.341c-0.072,-0.113 -0.144,-0.236 -0.226,-0.348c-0.215,-0.348 -0.451,-0.696 -0.686,-1.034c-0.072,-0.123 -0.154,-0.246 -0.236,-0.358c-0.02,-0.02 -0.031,-0.051 -0.051,-0.072c-0.287,-0.42 -0.584,-0.819 -0.87,-1.219c-0.338,-0.471 -0.697,-0.942 -1.065,-1.393c-0.317,-0.399 -0.645,-0.809 -0.973,-1.198c-0.082,-0.092 -0.164,-0.184 -0.245,-0.276c-0.328,-0.399 -0.676,-0.788 -1.035,-1.178c-0.389,-0.43 -0.788,-0.86 -1.188,-1.27c-0.399,-0.41 -0.799,-0.809 -1.208,-1.208c-0.021,-0.02 -0.041,-0.041 -0.072,-0.061c-0.399,-0.389 -0.809,-0.778 -1.229,-1.147c-0.389,-0.358 -0.788,-0.696 -1.188,-1.034c-0.102,-0.092 -0.205,-0.184 -0.317,-0.266c-0.379,-0.328 -0.768,-0.635 -1.167,-0.942c-0.225,-0.174 -0.461,-0.358 -0.686,-0.533c-0.236,-0.174 -0.471,-0.358 -0.707,-0.522c-0.419,-0.307 -0.84,-0.604 -1.27,-0.891c-0.43,-0.307 -0.87,-0.594 -1.321,-0.881c-0.379,-0.246 -0.768,-0.492 -1.167,-0.727c-0.072,-0.051 -0.154,-0.102 -0.245,-0.154c-0.307,-0.174 -0.614,-0.358 -0.932,-0.533c-0.02,-0.01 -0.03,-0.02 -0.051,-0.031c-0.297,-0.174 -0.614,-0.348 -0.932,-0.512c-0.491,-0.277 -0.993,-0.533 -1.495,-0.778c-0.061,-0.031 -0.112,-0.061 -0.174,-0.082c-0.441,-0.225 -0.891,-0.44 -1.352,-0.645c-0.461,-0.215 -0.932,-0.42 -1.403,-0.614c-0.338,-0.143 -0.686,-0.287 -1.035,-0.41c-0.256,-0.113 -0.522,-0.215 -0.788,-0.307c-0.542,-0.205 -1.085,-0.399 -1.638,-0.584c-0.471,-0.164 -0.942,-0.317 -1.414,-0.461c-0.092,-0.031 -0.184,-0.051 -0.276,-0.082c-0.44,-0.133 -0.881,-0.256 -1.331,-0.369c-0.154,-0.041 -0.297,-0.092 -0.451,-0.123c-0.246,-0.072 -0.502,-0.133 -0.758,-0.184c-0.01,-0.01 -0.02,-0.01 -0.031,-0.01c-0.01,0 -0.02,-0.01 -0.031,-0.01c-0.256,-0.072 -0.522,-0.133 -0.788,-0.184c-0.113,-0.031 -0.215,-0.051 -0.317,-0.072c-0.584,-0.123 -1.167,-0.246 -1.751,-0.348c-0.594,-0.113 -1.188,-0.205 -1.782,-0.297c-1.188,-0.174 -2.396,-0.297 -3.614,-0.389c-0.502,-0.041 -0.994,-0.072 -1.495,-0.092l-0.133,0c-0.194,-0.01 -0.389,-0.02 -0.584,-0.02c-0.522,-0.02 -1.055,-0.031 -1.587,-0.031c-20.05,0 -37.407,11.52 -45.793,28.303l-0.533,1.075l-343.716,687.422l-116.009,232.028l-0.542,1.075l0.01,0c-3.451,6.902 -5.417,14.664 -5.417,22.897c0,28.272 22.917,51.2 51.2,51.2l307.2,0c28.273,0 51.2,-22.928 51.2,-51.2l0,-204.8c0,-28.283 22.917,-51.2 51.2,-51.2l102.4,0c28.273,0 51.2,22.917 51.2,51.2l0,204.8c0,28.272 22.917,51.2 51.2,51.2l307.2,0c28.273,0 51.2,-22.928 51.2,-51.2c0,-8.233 -1.955,-16.005 -5.407,-22.897" style="fill:#fff;fill-rule:nonzero;"/></svg>