<?xml version="1.0" encoding="UTF-8" standalone="no"?><!DOCTYPE svg PUBLIC "-//W3C//DTD SVG 1.1//EN" "http://www.w3.org/Graphics/SVG/1.1/DTD/svg11.dtd"><svg width="100%" height="100%" viewBox="0 0 10417 10417" version="1.1" xmlns="http://www.w3.org/2000/svg" xmlns:xlink="http://www.w3.org/1999/xlink" xml:space="preserve" xmlns:serif="http://www.serif.com/" style="fill-rule:evenodd;clip-rule:evenodd;stroke-linejoin:round;stroke-miterlimit:2;"><path d="M5208.767,6249.996c-0.15,0 -0.292,-0.013 -0.438,-0.013c-0.15,0 -0.292,0.013 -0.438,0.013c-575.108,-0.242 -1041.225,-466.496 -1041.225,-1041.663c0,-575.312 466.354,-1041.667 1041.667,-1041.667c575.317,0 1041.667,466.354 1041.667,1041.667c0,575.171 -466.121,1041.425 -1041.233,1041.663m5152.9,3412.921l-4.479,-9.062l-1181.146,-2362.188l-3496.875,-6993.75c-1.562,-3.333 -3.229,-6.667 -5,-10c-2.604,-5.312 -5.308,-10.521 -8.125,-15.625c-0.1,-0.104 -0.1,-0.208 -0.208,-0.313c-2.812,-5.208 -5.729,-10.312 -8.75,-15.417c-2.708,-4.583 -5.521,-9.167 -8.329,-13.646c-0.729,-1.146 -1.463,-2.396 -2.296,-3.542c-2.188,-3.542 -4.583,-7.083 -6.979,-10.521c-0.729,-1.25 -1.562,-2.5 -2.396,-3.646c-0.208,-0.208 -0.312,-0.521 -0.521,-0.729c-2.917,-4.271 -5.938,-8.333 -8.85,-12.396c-3.438,-4.792 -7.087,-9.583 -10.837,-14.167c-3.229,-4.062 -6.558,-8.229 -9.896,-12.187c-0.833,-0.937 -1.667,-1.875 -2.496,-2.812c-3.333,-4.062 -6.879,-8.021 -10.525,-11.979c-3.958,-4.375 -8.021,-8.75 -12.083,-12.917c-4.062,-4.167 -8.125,-8.229 -12.288,-12.292c-0.212,-0.208 -0.421,-0.417 -0.733,-0.625c-4.062,-3.958 -8.229,-7.917 -12.5,-11.667c-3.954,-3.646 -8.021,-7.083 -12.083,-10.521c-1.042,-0.937 -2.083,-1.875 -3.229,-2.708c-3.854,-3.333 -7.812,-6.458 -11.875,-9.583c-2.292,-1.771 -4.688,-3.646 -6.979,-5.417c-2.396,-1.771 -4.792,-3.646 -7.188,-5.312c-4.267,-3.125 -8.542,-6.146 -12.917,-9.062c-4.371,-3.125 -8.854,-6.042 -13.438,-8.958c-3.854,-2.5 -7.812,-5 -11.875,-7.396c-0.729,-0.521 -1.562,-1.042 -2.496,-1.563c-3.125,-1.771 -6.25,-3.646 -9.483,-5.417c-0.208,-0.104 -0.308,-0.208 -0.521,-0.312c-3.017,-1.771 -6.25,-3.542 -9.479,-5.208c-4.996,-2.813 -10.104,-5.417 -15.208,-7.917c-0.625,-0.313 -1.142,-0.625 -1.767,-0.833c-4.483,-2.292 -9.067,-4.479 -13.75,-6.562c-4.688,-2.187 -9.483,-4.271 -14.271,-6.25c-3.437,-1.458 -6.983,-2.917 -10.525,-4.167c-2.604,-1.146 -5.312,-2.187 -8.021,-3.125c-5.517,-2.083 -11.042,-4.062 -16.663,-5.938c-4.796,-1.667 -9.587,-3.229 -14.379,-4.688c-0.938,-0.312 -1.875,-0.521 -2.812,-0.833c-4.479,-1.354 -8.958,-2.604 -13.537,-3.75c-1.567,-0.417 -3.025,-0.938 -4.588,-1.25c-2.5,-0.729 -5.104,-1.354 -7.708,-1.875c-0.104,-0.104 -0.208,-0.104 -0.312,-0.104c-0.104,0 -0.204,-0.104 -0.312,-0.104c-2.604,-0.729 -5.308,-1.354 -8.021,-1.875c-1.146,-0.312 -2.188,-0.521 -3.229,-0.729c-5.938,-1.25 -11.875,-2.5 -17.808,-3.542c-6.046,-1.146 -12.088,-2.083 -18.129,-3.021c-12.083,-1.771 -24.375,-3.021 -36.767,-3.958c-5.108,-0.417 -10.108,-0.729 -15.212,-0.938l-1.354,0c-1.975,-0.104 -3.958,-0.208 -5.938,-0.208c-5.312,-0.208 -10.729,-0.312 -16.146,-0.312c-203.958,0 -380.521,117.188 -465.829,287.917l-5.417,10.938l-3496.462,6992.812l-1180.104,2360.312l-5.517,10.938l0.1,0c-35.104,70.208 -55.104,149.167 -55.104,232.917c0,287.6 233.125,520.833 520.833,520.833l3125,0c287.604,0 520.833,-233.233 520.833,-520.833l0,-2083.333c0,-287.708 233.125,-520.833 520.833,-520.833l1041.667,0c287.604,0 520.833,233.125 520.833,520.833l0,2083.333c0,287.6 233.125,520.833 520.833,520.833l3125,0c287.604,0 520.833,-233.233 520.833,-520.833c0,-83.75 -19.892,-162.812 -55,-232.917" style="fill:#fff;fill-rule:nonzero;"/></svg>